<svg xmlns="http://www.w3.org/2000/svg" xmlns:xlink="http://www.w3.org/1999/xlink" width="636" height="343" viewBox="0 0 636 343"><defs><path id="a" d="M.596.796c1.092 5.852 4.139 11.436 8.339 15.812h10.73v-8.18A14.3 14.3 0 0 1 13.163.797H.596z"/><path id="c" d="M.75 5.556a27.17 27.17 0 0 1-.173-.864L.166 2.446 12.138.262l.408 2.246c.195 1.069.505 2.088.915 3.048H.75z"/><path id="e" d="M.623 14.247c3.993 3.603 8.816 6.155 13.904 6.994V6.083A14.37 14.37 0 0 1 5.061.365H.623v13.882z"/><path id="g" d="M.037 33.944h22.168a5.917 5.917 0 0 0 3.125-.89V.464H.037v33.48z"/><path id="i" d="M14.659.835a5.924 5.924 0 0 1-3.454 1.109H.788V.324H14.66v.51z"/><path id="k" d="M.18 1.48a14.352 14.352 0 0 1 5.737 8.991H18.22c-.313-3.574-1.274-7.132-2.77-10.438H.18V1.48z"/><path id="m" d="M1.14.867c-.008.134-.017.268-.028.403L.925 3.546l4.851.398h4.429a5.919 5.919 0 0 0 2.961-.792l.073-.888c.038-.464.064-.93.078-1.397H1.14z"/><path id="o" d="M.282 12.507a14.334 14.334 0 0 1 7.913 6.374h10.728v-6.956C16.69 7.435 13.457 3.479 9.524.683H.282v11.824z"/><path id="q" d="M3.893.944H.435V.391h3.458v.553z"/><path id="s" d="M52.043 42.944H1.17a5.94 5.94 0 0 1-1.002-.085V.033h51.874v42.911z"/><path id="u" d="M6.172.123C2.891.123.208 2.807.208 6.087l.399 50.607L33.208 89.98c0 3.281 2.684 5.964 5.963 5.964h60.034c3.28 0 5.964-2.683 5.964-5.964V6.087c0-3.28-2.684-5.964-5.964-5.964H6.172z"/><path id="w" d="M39.553 15.479c0 9.187-8.813 16.615-19.624 16.593C9.12 32.05.346 24.578.37 15.386.37 4.757.41.316 19.993.36c19.583.044 19.589 4.485 19.56 15.119z"/><path id="y" d="M.263.796c1.092 5.852 4.138 11.436 8.338 15.812h10.732v-8.18A14.3 14.3 0 0 1 12.83.797H.263z"/><path id="A" d="M1.416 5.556c-.062-.287-.12-.575-.172-.864L.832 2.446 12.803.262l.411 2.246c.195 1.069.505 2.088.915 3.048H1.416z"/><path id="C" d="M.29 14.248c3.992 3.603 8.816 6.155 13.904 6.993V6.083A14.37 14.37 0 0 1 4.73.365H.29v13.883z"/><path id="E" d="M.703 33.944H22.87a5.919 5.919 0 0 0 3.126-.89V.464H.703v33.48z"/><path id="G" d="M14.326.835a5.925 5.925 0 0 1-3.455 1.109H.454V.324h13.872v.51z"/><path id="I" d="M.847 1.48a14.35 14.35 0 0 1 5.736 8.991h12.302c-.313-3.574-1.273-7.132-2.77-10.438H.848V1.48z"/><path id="K" d="M.805.867c-.007.134-.016.268-.027.403L.592 3.546l4.851.398h4.428a5.923 5.923 0 0 0 2.962-.792l.072-.888c.038-.464.064-.93.079-1.397H.805z"/><path id="M" d="M.95 12.507a14.33 14.33 0 0 1 7.912 6.374H19.59v-6.955c-2.234-4.49-5.467-8.447-9.4-11.242H.95v11.823z"/><path id="O" d="M52.71 42.944H1.838c-.342 0-.677-.03-1.003-.085V.033H52.71v42.911z"/><path id="Q" d="M6.838.123C3.558.123.875 2.807.875 6.087l.4 50.607L33.874 89.98c0 3.281 2.684 5.964 5.964 5.964h60.033c3.281 0 5.965-2.683 5.965-5.964V6.087c0-3.28-2.684-5.964-5.965-5.964H6.838z"/><path id="S" d="M39.553 15.479c0 9.187-8.813 16.615-19.624 16.593C9.12 32.05.346 24.578.37 15.386.37 4.757.41.316 19.993.36c19.583.044 19.589 4.485 19.56 15.119z"/><path id="U" d="M.93.796c1.09 5.852 4.137 11.436 8.337 15.812H20V8.43A14.3 14.3 0 0 1 13.495.796H.93z"/><path id="W" d="M1.082 5.556a27.17 27.17 0 0 1-.172-.864L.5 2.446 12.471.262l.408 2.246c.195 1.069.505 2.088.915 3.048H1.082z"/><path id="Y" d="M.956 14.247C4.95 17.85 9.772 20.402 14.86 21.24V6.083A14.371 14.371 0 0 1 5.394.365H.956v13.882z"/><path id="aa" d="M.37 33.944h22.169a5.914 5.914 0 0 0 3.124-.89V.464H.37v33.48z"/><path id="ac" d="M13.992.835a5.92 5.92 0 0 1-3.453 1.109H.121V.324h13.871v.51z"/><path id="ae" d="M.512 1.48a14.352 14.352 0 0 1 5.738 8.99h12.302c-.313-3.574-1.274-7.132-2.77-10.438H.512v1.446z"/><path id="ag" d="M.472.867a14.49 14.49 0 0 1-.027.403L.257 3.546l4.852.398h4.43a5.913 5.913 0 0 0 2.96-.792l.073-.888c.038-.464.064-.93.078-1.397H.472z"/><path id="ai" d="M.616 12.507a14.332 14.332 0 0 1 7.913 6.374h10.727v-6.956C17.022 7.435 13.79 3.479 9.857.683H.616v11.824z"/><path id="ak" d="M52.376 42.944H1.504c-.341 0-.676-.03-1.002-.085V.033h51.874v42.911z"/><path id="am" d="M39.553 15.479c0 9.187-8.813 16.615-19.624 16.593C9.12 32.05.346 24.578.37 15.386.37 4.757.41.316 19.993.36c19.583.044 19.589 4.485 19.56 15.119z"/></defs><g fill="none" fill-rule="evenodd"><path fill="#7D9199" fill-opacity=".5" d="M.81 183.82S69.295 3.353 282.257 1.71H423.7c14.797 0 26.794 11.996 26.794 26.794V184.1L.81 183.82z"/><path fill="#425966" d="M234.844 238.33c72.71 10.991 111.34 57.708 131.032 81.753 19.692 24.045 52.259 21.984 52.259 21.984h15.906l31.053-118.85H143.196c18.936 3.432 91.648 15.113 91.648 15.113"/><path fill="#9AADB2" d="M397.009 267.488V247.72H96.987c.502 2.016 2.902 5.61 12.54 9.685 14.813 6.269 31.875 11.656 45.7 12.536 62.672 3.988 241.182 0 241.182 0l.6-2.452z"/><path fill="#7D9199" d="M397.009 227.962l-.6-2.453s-178.51-3.987-241.182 0c-13.825.88-30.887 6.267-45.7 12.534-9.638 4.08-12.038 7.671-12.54 9.686h300.022v-19.767z"/><path fill="#A9BBBF" d="M305.187 247.717h-5.833v23.777c1.936.011 3.882.02 5.833.027v-23.804z"/><path fill="#6C7D82" d="M305.187 223.929c-1.95.008-3.897.015-5.833.026v23.778h5.833v-23.804z"/><path fill="#A9BBBF" d="M237.669 247.717h-5.833v23.998c1.937.011 3.882.02 5.833.026v-24.024z"/><path fill="#6C7D82" d="M237.669 223.708c-1.951.008-3.896.015-5.833.026v23.998h5.833v-24.024z"/><path fill="#A9BBBF" d="M167.942 247.717H162.3l-.087 22.787c1.933.165 3.843.236 5.73.243v-23.03z"/><path fill="#6C7D82" d="M167.942 224.702c-1.887.008-3.799.044-5.673.056l.03 22.974h5.643v-23.03z"/><path fill="#425966" d="M165.055 120.679h-5.644l-.085 22.786c1.933.166 3.841.236 5.73.243v-23.03z"/><path fill="#D78277" d="M165.055 97.664c-1.888.007-3.8.043-5.673.055l.03 22.974h5.643V97.664zm337.818 129.719h9.39v-35.212h-9.39z"/><path fill="#F69C79" d="M502.8 176.295h9.39v-35.21h-9.39z"/><path fill="#504F56" d="M463.854 292.954h15.11v-56.661h-15.11z"/><path fill="#403F44" d="M451.892 226.22c8.692 0 15.74 7.048 15.74 15.74v59.179c0 8.69-7.048 15.739-15.74 15.739s-15.738-7.048-15.738-15.74V241.96c0-8.692 7.046-15.74 15.738-15.74"/><path fill="#504F56" d="M463.854 130.527h15.11V73.866h-15.11z"/><path fill="#434344" d="M451.892 63.792c8.692 0 15.74 7.047 15.74 15.74v59.18c0 8.691-7.048 15.737-15.74 15.737s-15.738-7.046-15.738-15.738v-59.18c0-8.692 7.046-15.739 15.738-15.739"/><path fill="#57575B" d="M30.8 204.742c1.075.357 2.177.72 3.328 1.088 68.67 21.986 141.382 19.236 141.382 19.236h294.886v-41.219H30.8v20.895z"/><path fill="#F69C79" d="M30.323 163.171c-1.204.41-2.353.814-3.475 1.215v22.285h440.298v-44.064h-295.26s-72.805-2.937-141.563 20.564"/><path fill="#BF6C66" d="M488.071 229.856h15.149v-45.801h-15.149z"/><path fill="#D78277" d="M488.211 184.028h15.148v-45.804h-15.148z"/><path fill="#6C7D82" d="M96.708 183.848H60.662c.259 16.237 6.5 21.487 12.852 23.816 5.515 2.023 23.194 3.772 23.194 3.772v-27.588z"/><path fill="#7D9199" d="M96.708 156.264s-16.651 1.838-21.86 3.739c-6.493 2.37-13.927 8.17-14.043 23.815h35.903v-27.554z"/><path fill="#6C7D82" d="M34.126 183.847H.8c-.023 6.197 1.313 11.735 33.325 21.983v-21.983z"/><path fill="#7D9199" d="M34.135 183.82H.81c-.164-5.506 1.313-11.734 33.324-21.984v21.984z"/><path fill="#403F44" d="M131.078 183.842h-5.054v39.473c1.719.148 3.4.281 5.054.408v-39.881z"/><path fill="#BF6C66" d="M131.078 143.944c-1.658.127-3.335.262-5.054.408v39.464h5.054v-39.872z"/><path fill="#403F44" d="M194.701 225.067h6.058v-41.22h-6.058zm69.007 0h6.058v-41.22h-6.058zm69.006 0h6.06v-41.22h-6.06z"/><path fill="#403F44" d="M126.134 187.872h344.891v-3.779H126.134z"/><path fill="#BF6C66" d="M126.134 184.099h344.967v-3.779H126.134z"/><path fill="#7D9199" d="M493.628 239.014v-54.96h-78.771s-6.06 54.96 25.249 54.96h53.522z"/><path fill="#A9BBBF" d="M493.765 129.066v54.962h-78.77s-6.059-54.962 25.25-54.962h53.52z"/><path fill="#BF6C66" d="M209.205 165.75h-60.033c-3.28 0-5.964-2.684-5.964-5.964v-1.893c0-3.28 2.684-5.964 5.964-5.964h60.033c3.28 0 5.964 2.683 5.964 5.964v1.893c0 3.28-2.684 5.964-5.964 5.964"/><g fill="#DBD1BF"><path d="M153.945 151.001c-14.354 2.62-28.75-10.149-31.368-24.503l-.41-2.246 11.97-2.185.411 2.247c1.414 7.752 8.872 12.91 16.625 11.494l2.772 15.193z"/><path d="M133.659 115.972l.996 5.763a1.555 1.555 0 0 1-1.263 1.792l-10.12 1.749a1.554 1.554 0 0 1-1.791-1.264l-.997-5.763a4.135 4.135 0 0 1 3.362-4.765l5.047-.872a4.135 4.135 0 0 1 4.766 3.36"/></g><g transform="translate(122 125.806)"><mask id="b" fill="#fff"><use xlink:href="#a"/></mask><path fill="#C4B8A7" d="M19.666 2.143L.045 16.608l-.993-1.347L18.674.796z" mask="url(#b)"/></g><g transform="translate(122 121.806)"><mask id="d" fill="#fff"><use xlink:href="#c"/></mask><path fill="#C4B8A7" d="M18.026 1.454L-6.003 5.556l-.282-1.65 24.03-4.101z" mask="url(#d)"/></g><g transform="translate(132 129.806)"><mask id="f" fill="#fff"><use xlink:href="#e"/></mask><path fill="#C4B8A7" d="M14.527 1.22L2.06 22.168l-1.437-.856L13.09.365z" mask="url(#f)"/></g><path fill="#DBD1BF" d="M132.744 120.535a1.729 1.729 0 1 0 3.437-.37 1.729 1.729 0 0 0-3.437.37"/><g transform="translate(187 131.806)"><mask id="h" fill="#fff"><use xlink:href="#g"/></mask><path fill="#DBD1BF" d="M1.3.465c14.54 1.193 25.133 17.26 23.939 31.8l-.186 2.276-12.128-.995.188-2.276C13.756 23.416 7.89 16.502.037 15.858L1.3.465z" mask="url(#h)"/></g><g transform="translate(198 163.806)"><mask id="j" fill="#fff"><use xlink:href="#i"/></mask><path fill="#DBD1BF" d="M.805 7.558l.532-5.824A1.554 1.554 0 0 1 3.022.33l10.228.935a1.555 1.555 0 0 1 1.402 1.684l-.532 5.825a4.136 4.136 0 0 1-4.482 3.73l-5.103-.466a4.134 4.134 0 0 1-3.73-4.481" mask="url(#j)"/></g><g transform="translate(194 148.806)"><mask id="l" fill="#fff"><use xlink:href="#k"/></mask><path fill="#C4B8A7" d="M.18 8.913l22.7-8.88.61 1.558-22.7 8.88z" mask="url(#l)"/></g><g transform="translate(199 161.806)"><mask id="n" fill="#fff"><use xlink:href="#m"/></mask><path fill="#C4B8A7" d="M-4.453.867l24.27 2.271-.156 1.667-24.27-2.272z" mask="url(#n)"/></g><g transform="translate(190 135.806)"><mask id="p" fill="#fff"><use xlink:href="#o"/></mask><path fill="#C4B8A7" d="M.282 17.68L17.756.683l1.167 1.2L1.45 18.88z" mask="url(#p)"/></g><g transform="translate(110 69.806)"><g transform="translate(87 95)"><mask id="r" fill="#fff"><use xlink:href="#q"/></mask><path fill="#DBD1BF" d="M3.872 2.388a1.73 1.73 0 1 0-3.418-.535 1.73 1.73 0 0 0 3.418.535" mask="url(#r)"/></g><g transform="translate(38 53)"><mask id="t" fill="#fff"><use xlink:href="#s"/></mask><path fill="#E8E0CB" d="M52.043 51.19s-4.661 14.38-25.407 14.38C5.89 65.57.169 51.19.169 51.19V24.791C.169 11.118 11.253.033 24.928.033h2.355c13.674 0 24.76 11.085 24.76 24.76v26.396" mask="url(#t)"/></g><path fill="#F99D78" d="M78.525 78.47l-7.119.193a1.383 1.383 0 0 1-1.42-1.344l-.193-7.12a1.381 1.381 0 0 1 1.344-1.42l7.12-.195c.763-.02 1.4.582 1.42 1.346l.194 7.12a1.384 1.384 0 0 1-1.346 1.42"/><mask id="v" fill="#fff"><use xlink:href="#u"/></mask><path fill="#E8E0CB" d="M63.388 23.466h1.675V5.907h-1.675z" mask="url(#v)"/><path fill="#F99D78" d="M67.47 6.924a3.245 3.245 0 1 1-6.49 0 3.245 3.245 0 0 1 6.49 0" mask="url(#v)"/><path fill="#BAB099" d="M42.916 47.349l-1.847-.005a1.128 1.128 0 0 1-1.116-.99l-.545-4.37a2.504 2.504 0 0 1 2.489-2.814l1.019 8.178zm42.582.105l1.847.005a1.128 1.128 0 0 0 1.12-.984l.567-4.369a2.502 2.502 0 0 0-2.474-2.824l-1.06 8.172z" mask="url(#v)"/><path fill="#CDC7BC" d="M49.054 57.282c-.127.087-.254.174-.38.263 3.796 4.278 9.33 6.98 15.5 6.996h.053c6.135 0 11.65-2.66 15.456-6.893-.13-.093-.26-.184-.392-.274a22.821 22.821 0 0 1-15.064 5.65h-.06a22.81 22.81 0 0 1-15.113-5.742" mask="url(#v)"/><path fill="#E8E0CB" d="M87.137 40.17c-.031 12.653-10.314 22.886-22.97 22.854-12.652-.03-22.884-10.314-22.854-22.968.032-12.654 10.315-22.887 22.97-22.856 12.653.033 22.885 10.315 22.854 22.97" mask="url(#v)"/><g mask="url(#v)"><g transform="translate(44.116 26.133)"><mask id="x" fill="#fff"><use xlink:href="#w"/></mask><use fill="#8FA4AA" fill-rule="nonzero" xlink:href="#w"/><path fill="#3D545E" fill-opacity=".221" d="M-4.559 11.004c-.039-.477-.058-.96-.058-1.446 0-10.708 9.56-19.39 21.355-19.39.516 0 1.027.017 1.534.05.542-.033 1.089-.05 1.64-.05 13.547 0 24.53 10.027 24.53 22.394 0 12.368-10.983 22.394-24.53 22.394S-4.618 24.93-4.618 12.562c0-.524.02-1.043.06-1.558zm0 0c.815 10.033 10.038 17.944 21.297 17.944 11.794 0 21.355-8.681 21.355-19.39 0-10.24-8.743-18.626-19.821-19.34C6.054-9.046-3.72-.142-4.558 11.004z" mask="url(#x)"/><ellipse cx="6.349" cy="6.39" fill="#FFF" mask="url(#x)" opacity=".3" rx="1.731" ry="1.475"/><ellipse cx="12.12" cy="10.104" fill="#CDDCE6" mask="url(#x)" opacity=".3" rx="4.04" ry="3.004"/></g></g></g><path d="M191.316 99.548l-.02.014c.832.802 1.407 1.748 1.802 2.842l.005-.003c-.392-1.104-.962-2.05-1.787-2.853m-7.089-2.93l-.015.012c1.655.278 3.03.648 4.17 1.113l.024-.018c-1.143-.463-2.52-.83-4.179-1.107" fill="#E8E4DC"/><path fill="#BF6C66" d="M302.872 165.75h-60.034c-3.28 0-5.963-2.684-5.963-5.964v-1.893c0-3.28 2.684-5.964 5.963-5.964h60.034c3.28 0 5.964 2.683 5.964 5.964v1.893c0 3.28-2.684 5.964-5.964 5.964"/><g fill="#DBD1BF"><path d="M247.611 151.001c-14.353 2.62-28.749-10.149-31.368-24.503l-.41-2.246 11.97-2.185.411 2.247c1.415 7.752 8.873 12.91 16.625 11.494l2.772 15.193z"/><path d="M227.326 115.972l.996 5.763a1.556 1.556 0 0 1-1.264 1.792l-10.119 1.749a1.555 1.555 0 0 1-1.792-1.264l-.996-5.763a4.135 4.135 0 0 1 3.362-4.765l5.047-.872a4.136 4.136 0 0 1 4.766 3.36"/></g><g transform="translate(216 125.806)"><mask id="z" fill="#fff"><use xlink:href="#y"/></mask><path fill="#C4B8A7" d="M19.333 2.143L-.29 16.608l-.992-1.347L18.339.796z" mask="url(#z)"/></g><g transform="translate(215 121.806)"><mask id="B" fill="#fff"><use xlink:href="#A"/></mask><path fill="#C4B8A7" d="M18.693 1.454L-5.336 5.556l-.282-1.65 24.03-4.101z" mask="url(#B)"/></g><g transform="translate(226 129.806)"><mask id="D" fill="#fff"><use xlink:href="#C"/></mask><path fill="#C4B8A7" d="M14.194 1.22L1.727 22.168.29 21.312 12.756.365z" mask="url(#D)"/></g><path fill="#DBD1BF" d="M226.411 120.535a1.729 1.729 0 1 0 3.437-.37 1.729 1.729 0 0 0-3.437.37"/><g transform="translate(280 131.806)"><mask id="F" fill="#fff"><use xlink:href="#E"/></mask><path fill="#DBD1BF" d="M1.966.465c14.542 1.193 25.133 17.26 23.94 31.8l-.187 2.276-12.127-.995.187-2.276c.644-7.854-5.221-14.768-13.076-15.412L1.966.465z" mask="url(#F)"/></g><g transform="translate(292 163.806)"><mask id="H" fill="#fff"><use xlink:href="#G"/></mask><path fill="#DBD1BF" d="M.471 7.558l.533-5.824A1.554 1.554 0 0 1 2.69.33l10.227.935c.85.077 1.48.836 1.403 1.684l-.533 5.825a4.136 4.136 0 0 1-4.481 3.73l-5.103-.466a4.135 4.135 0 0 1-3.73-4.481" mask="url(#H)"/></g><g transform="translate(287 148.806)"><mask id="J" fill="#fff"><use xlink:href="#I"/></mask><path fill="#C4B8A7" d="M.847 8.913l22.7-8.88.61 1.558-22.701 8.88z" mask="url(#J)"/></g><g transform="translate(293 161.806)"><mask id="L" fill="#fff"><use xlink:href="#K"/></mask><path fill="#C4B8A7" d="M-4.787.867l24.27 2.271-.155 1.667-24.271-2.272z" mask="url(#L)"/></g><g transform="translate(283 135.806)"><mask id="N" fill="#fff"><use xlink:href="#M"/></mask><path fill="#C4B8A7" d="M.95 17.68L18.422.683l1.167 1.2L2.116 18.88z" mask="url(#N)"/></g><g transform="translate(203 69.806)"><g transform="translate(38 53)"><mask id="P" fill="#fff"><use xlink:href="#O"/></mask><path fill="#E8E0CB" d="M52.71 51.19s-4.662 14.38-25.407 14.38S.835 51.19.835 51.19V24.791C.835 11.118 11.92.033 25.595.033h2.355c13.674 0 24.76 11.085 24.76 24.76v26.396" mask="url(#P)"/></g><path fill="#F99D78" d="M79.192 78.47l-7.119.193a1.382 1.382 0 0 1-1.42-1.344l-.194-7.12a1.382 1.382 0 0 1 1.345-1.42l7.12-.195c.763-.02 1.4.582 1.42 1.346l.193 7.12a1.383 1.383 0 0 1-1.345 1.42"/><mask id="R" fill="#fff"><use xlink:href="#Q"/></mask><path fill="#E8E0CB" d="M64.054 23.466h1.676V5.907h-1.676z" mask="url(#R)"/><path fill="#F99D78" d="M68.137 6.924a3.245 3.245 0 1 1-6.49 0 3.245 3.245 0 0 1 6.49 0" mask="url(#R)"/><path fill="#BAB099" d="M43.582 47.349l-1.846-.005a1.129 1.129 0 0 1-1.117-.99l-.544-4.37a2.503 2.503 0 0 1 2.488-2.814l1.019 8.178zm42.583.105l1.846.005a1.13 1.13 0 0 0 1.122-.984l.566-4.369a2.503 2.503 0 0 0-2.475-2.824l-1.06 8.172z" mask="url(#R)"/><path fill="#CDC7BC" d="M49.72 57.282c-.127.087-.254.174-.38.263a20.734 20.734 0 0 0 15.5 6.996h.054c6.134 0 11.65-2.66 15.456-6.893a21.153 21.153 0 0 0-.392-.274 22.822 22.822 0 0 1-15.065 5.65h-.058a22.814 22.814 0 0 1-15.115-5.742" mask="url(#R)"/><path fill="#E8E0CB" d="M87.804 40.17c-.031 12.653-10.314 22.886-22.97 22.854-12.653-.03-22.885-10.314-22.855-22.968.032-12.654 10.315-22.887 22.97-22.856 12.654.033 22.886 10.315 22.855 22.97" mask="url(#R)"/><g mask="url(#R)"><g transform="translate(45.116 26.133)"><mask id="T" fill="#fff"><use xlink:href="#S"/></mask><use fill="#8FA4AA" fill-rule="nonzero" xlink:href="#S"/><path fill="#3D545E" fill-opacity=".221" d="M-4.559 11.004c-.039-.477-.058-.96-.058-1.446 0-10.708 9.56-19.39 21.355-19.39.516 0 1.027.017 1.534.05.542-.033 1.089-.05 1.64-.05 13.547 0 24.53 10.027 24.53 22.394 0 12.368-10.983 22.394-24.53 22.394S-4.618 24.93-4.618 12.562c0-.524.02-1.043.06-1.558zm0 0c.815 10.033 10.038 17.944 21.297 17.944 11.794 0 21.355-8.681 21.355-19.39 0-10.24-8.743-18.626-19.821-19.34C6.054-9.046-3.72-.142-4.558 11.004z" mask="url(#T)"/><ellipse cx="6.349" cy="6.39" fill="#FFF" mask="url(#T)" opacity=".3" rx="1.731" ry="1.475"/><ellipse cx="12.12" cy="10.104" fill="#CDDCE6" mask="url(#T)" opacity=".3" rx="4.04" ry="3.004"/></g></g></g><path fill="#BF6C66" d="M396.539 165.75h-60.034c-3.28 0-5.964-2.684-5.964-5.964v-1.893c0-3.28 2.684-5.964 5.964-5.964h60.034c3.279 0 5.963 2.683 5.963 5.964v1.893c0 3.28-2.684 5.964-5.963 5.964"/><g fill="#DBD1BF"><path d="M341.278 151.001c-14.354 2.62-28.749-10.149-31.368-24.503l-.41-2.246 11.97-2.185.411 2.247c1.415 7.752 8.873 12.91 16.625 11.494l2.772 15.193z"/><path d="M320.992 115.972l.996 5.763a1.555 1.555 0 0 1-1.263 1.792l-10.12 1.749a1.555 1.555 0 0 1-1.791-1.264l-.996-5.763a4.135 4.135 0 0 1 3.361-4.765l5.047-.872a4.135 4.135 0 0 1 4.766 3.36"/></g><g transform="translate(309 125.806)"><mask id="V" fill="#fff"><use xlink:href="#U"/></mask><path fill="#C4B8A7" d="M20 2.143L.378 16.608l-.993-1.347L19.007.796z" mask="url(#V)"/></g><g transform="translate(309 121.806)"><mask id="X" fill="#fff"><use xlink:href="#W"/></mask><path fill="#C4B8A7" d="M18.36 1.454L-5.67 5.556l-.283-1.65 24.03-4.101z" mask="url(#X)"/></g><g transform="translate(319 129.806)"><mask id="Z" fill="#fff"><use xlink:href="#Y"/></mask><path fill="#C4B8A7" d="M14.86 1.22L2.393 22.168l-1.437-.856L13.423.365z" mask="url(#Z)"/></g><path fill="#DBD1BF" d="M320.078 120.535a1.73 1.73 0 1 0 3.437-.373 1.73 1.73 0 0 0-3.437.373"/><g transform="translate(374 131.806)"><mask id="ab" fill="#fff"><use xlink:href="#aa"/></mask><path fill="#DBD1BF" d="M1.633.465c14.542 1.193 25.133 17.26 23.939 31.8l-.186 2.276-12.127-.995.187-2.276C14.089 23.416 8.224 16.502.37 15.858L1.633.465z" mask="url(#ab)"/></g><g transform="translate(386 163.806)"><mask id="ad" fill="#fff"><use xlink:href="#ac"/></mask><path fill="#DBD1BF" d="M.139 7.558L.67 1.734A1.553 1.553 0 0 1 2.357.33l10.226.935c.85.077 1.481.836 1.403 1.684l-.532 5.825a4.135 4.135 0 0 1-4.481 3.73l-5.103-.466A4.135 4.135 0 0 1 .14 7.557" mask="url(#ad)"/></g><g transform="translate(381 148.806)"><mask id="af" fill="#fff"><use xlink:href="#ae"/></mask><path fill="#C4B8A7" d="M.512 8.913L23.215.033l.61 1.558-22.703 8.88z" mask="url(#af)"/></g><g transform="translate(387 161.806)"><mask id="ah" fill="#fff"><use xlink:href="#ag"/></mask><path fill="#C4B8A7" d="M-5.12.867l24.27 2.271-.156 1.667-24.27-2.272z" mask="url(#ah)"/></g><g transform="translate(377 135.806)"><mask id="aj" fill="#fff"><use xlink:href="#ai"/></mask><path fill="#C4B8A7" d="M.616 17.68L18.09.683l1.166 1.2L1.782 18.88z" mask="url(#aj)"/></g><g transform="translate(335 122.806)"><mask id="al" fill="#fff"><use xlink:href="#ak"/></mask><path fill="#E8E0CB" d="M52.376 51.19S47.715 65.57 26.97 65.57C6.225 65.57.502 51.19.502 51.19V24.791C.502 11.118 11.587.033 25.262.033h2.355c13.674 0 24.759 11.085 24.759 24.76v26.396" mask="url(#al)"/></g><path fill="#F99D78" d="M375.86 148.276l-7.12.193a1.382 1.382 0 0 1-1.42-1.344l-.194-7.12a1.381 1.381 0 0 1 1.344-1.42l7.12-.195a1.384 1.384 0 0 1 1.42 1.346l.194 7.12a1.384 1.384 0 0 1-1.345 1.42"/><path fill="#E8E0CB" d="M360.721 93.272h1.676V75.713h-1.676z"/><path fill="#F99D78" d="M364.803 76.73a3.245 3.245 0 1 1-6.49 0 3.245 3.245 0 0 1 6.49 0"/><path fill="#BAB099" d="M340.249 117.154l-1.846-.005a1.129 1.129 0 0 1-1.117-.989l-.545-4.37a2.505 2.505 0 0 1 2.489-2.814l1.019 8.178zm42.581.106l1.848.005a1.127 1.127 0 0 0 1.12-.984l.567-4.369a2.501 2.501 0 0 0-2.474-2.824l-1.06 8.172z"/><path fill="#CDC7BC" d="M346.387 127.088c-.127.087-.254.174-.38.263a20.733 20.733 0 0 0 15.5 6.996h.053c6.135 0 11.652-2.66 15.457-6.893a25.15 25.15 0 0 0-.392-.274 22.824 22.824 0 0 1-15.065 5.65h-.06a22.811 22.811 0 0 1-15.114-5.742"/><path fill="#E8E0CB" d="M384.825 109.776c-.032 12.653-10.314 22.886-22.97 22.854-12.653-.03-22.885-10.314-22.855-22.968.032-12.654 10.315-22.887 22.97-22.856 12.653.033 22.886 10.315 22.855 22.97"/><g transform="translate(342.116 95.94)"><mask id="an" fill="#fff"><use xlink:href="#am"/></mask><use fill="#8FA4AA" fill-rule="nonzero" xlink:href="#am"/><path fill="#3D545E" fill-opacity=".221" d="M-4.559 11.004c-.039-.477-.058-.96-.058-1.446 0-10.708 9.56-19.39 21.355-19.39.516 0 1.027.017 1.534.05.542-.033 1.089-.05 1.64-.05 13.547 0 24.53 10.027 24.53 22.394 0 12.368-10.983 22.394-24.53 22.394S-4.618 24.93-4.618 12.562c0-.524.02-1.043.06-1.558zm0 0c.815 10.033 10.038 17.944 21.297 17.944 11.794 0 21.355-8.681 21.355-19.39 0-10.24-8.743-18.626-19.821-19.34C6.054-9.046-3.72-.142-4.558 11.004z" mask="url(#an)"/><ellipse cx="6.349" cy="6.39" fill="#FFF" mask="url(#an)" opacity=".3" rx="1.731" ry="1.475"/><ellipse cx="12.12" cy="10.104" fill="#CDDCE6" mask="url(#an)" opacity=".3" rx="4.04" ry="3.004"/></g><path d="M379.594 1.708L143.489 183.909l31.744.019L411.359 1.708z"/><path fill="#ED8370" d="M587.715 143.56l47.627 28.927a.696.696 0 0 1 .089 1.127l-42.5 36.039c-17.213 14.596-43 12.474-57.596-4.74-14.597-17.211-12.474-42.998 4.738-57.594 13.75-11.66 33.025-12.61 47.642-3.76"/><path fill="#F99D78" d="M566.275 156.763l31.146 18.916a.456.456 0 0 1 .057.737l-27.792 23.568c-11.257 9.545-28.119 8.157-37.664-3.1-9.545-11.255-8.158-28.118 3.1-37.663 8.991-7.625 21.594-8.245 31.153-2.458"/><path fill="#E8E0CB" d="M548.55 167.679l17.519 10.64a.255.255 0 0 1 .085.352.291.291 0 0 1-.052.063l-15.633 13.256c-6.332 5.368-15.816 4.588-21.186-1.744-5.368-6.331-4.587-15.816 1.744-21.184 5.057-4.29 12.146-4.638 17.523-1.383"/></g></svg>